HIERARCHY
ROOT hip
{
  OFFSET 0 90.174 2.4664
  CHANNELS 6 Xposition Yposition Zposition Zrotation Xrotation Yrotation
  JOINT abdomen
  {
    OFFSET 0 -1.186 -1.5018
    CHANNELS 6 Xposition Yposition Zposition Zrotation Xrotation Yrotation
    JOINT abdomen2
    {
      OFFSET 0 9.964 0.2134
      CHANNELS 6 Xposition Yposition Zposition Zrotation Xrotation Yrotation
      JOINT chest
      {
        OFFSET 0 13.134 -3.2573
        CHANNELS 6 Xposition Yposition Zposition Zrotation Xrotation Yrotation
        JOINT neck
        {
          OFFSET 0 20.686 -1.6905
          CHANNELS 6 Xposition Yposition Zposition Zrotation Xrotation Yrotation
          JOINT head
          {
            OFFSET 0 7.238 -0.1237
            CHANNELS 6 Xposition Yposition Zposition Zrotation Xrotation Yrotation
            End Site
            {
              OFFSET 0 0 0
            }
          }
        }
        JOINT lCollar
        {
          OFFSET 1.7069 20.075 5.0056
          CHANNELS 6 Xposition Yposition Zposition Zrotation Xrotation Yrotation
          JOINT lShldr
          {
            OFFSET 13.6458 -0.047 -4.849
            CHANNELS 6 Xposition Yposition Zposition Zrotation Xrotation Yrotation
            JOINT lForeArm
            {
              OFFSET 28.3255 -0.9759 2.2888
              CHANNELS 6 Xposition Yposition Zposition Zrotation Xrotation Yrotation
              JOINT lHand
              {
                OFFSET 22.1583 -0.53 10.8316
                CHANNELS 6 Xposition Yposition Zposition Zrotation Xrotation Yrotation
                JOINT lThumb1
                {
                  OFFSET 0.786 0.112 2.5817
                  CHANNELS 6 Xposition Yposition Zposition Zrotation Xrotation Yrotation
                  JOINT lThumb2
                  {
                    OFFSET 0.3601 -0.878 4.2331
                    CHANNELS 6 Xposition Yposition Zposition Zrotation Xrotation Yrotation
                    JOINT lThumb2_End
                    {
                      OFFSET 1.8127 -1.216 2.2227
                      CHANNELS 6 Xposition Yposition Zposition Zrotation Xrotation Yrotation
                      End Site
                      {
                        OFFSET 0.0181 -0.0122 0.0222
                      }
                    }
                  }
                }
                JOINT lCarpal1
                {
                  OFFSET 0.9571 1.114 1.7695
                  CHANNELS 6 Xposition Yposition Zposition Zrotation Xrotation Yrotation
                  JOINT lIndex1
                  {
                    OFFSET 4.1246 0.487 4.1451
                    CHANNELS 6 Xposition Yposition Zposition Zrotation Xrotation Yrotation
                    JOINT lIndex2
                    {
                      OFFSET 3.4052 -1.454 2.7682
                      CHANNELS 6 Xposition Yposition Zposition Zrotation Xrotation Yrotation
                      JOINT lIndex2_End
                      {
                        OFFSET 1.4531 -1.795 1.2713
                        CHANNELS 6 Xposition Yposition Zposition Zrotation Xrotation Yrotation
                        End Site
                        {
                          OFFSET 0.0145 -0.0179 0.0127
                        }
                      }
                    }
                  }
                  JOINT lMid1
                  {
                    OFFSET 5.6954 0.21 2.1184
                    CHANNELS 6 Xposition Yposition Zposition Zrotation Xrotation Yrotation
                    JOINT lMid2
                    {
                      OFFSET 3.9766 -1.54 2.3863
                      CHANNELS 6 Xposition Yposition Zposition Zrotation Xrotation Yrotation
                      JOINT lMid2_End
                      {
                        OFFSET 1.4042 -1.926 1.125
                        CHANNELS 6 Xposition Yposition Zposition Zrotation Xrotation Yrotation
                        End Site
                        {
                          OFFSET 0.014 -0.0193 0.0113
                        }
                      }
                    }
                  }
                }
                JOINT lCarpal2
                {
                  OFFSET 2.0956 0.66 -0.3894
                  CHANNELS 6 Xposition Yposition Zposition Zrotation Xrotation Yrotation
                  JOINT lRing1
                  {
                    OFFSET 5.0395 -0.09 2.4971
                    CHANNELS 6 Xposition Yposition Zposition Zrotation Xrotation Yrotation
                    JOINT lRing2
                    {
                      OFFSET 3.7921 -1.552 1.4806
                      CHANNELS 6 Xposition Yposition Zposition Zrotation Xrotation Yrotation
                      JOINT lRing2_End
                      {
                        OFFSET 1.4655 -1.808 0.9609
                        CHANNELS 6 Xposition Yposition Zposition Zrotation Xrotation Yrotation
                        End Site
                        {
                          OFFSET 0.0147 -0.0181 0.0096
                        }
                      }
                    }
                  }
                  JOINT lPinky1
                  {
                    OFFSET 4.9141 -1.269 0.3591
                    CHANNELS 6 Xposition Yposition Zposition Zrotation Xrotation Yrotation
                    JOINT lPinky2
                    {
                      OFFSET 3.1477 -1.685 0.8462
                      CHANNELS 6 Xposition Yposition Zposition Zrotation Xrotation Yrotation
                      JOINT lPinky2_End
                      {
                        OFFSET 0.8055 -1.585 0.7955
                        CHANNELS 6 Xposition Yposition Zposition Zrotation Xrotation Yrotation
                        End Site
                        {
                          OFFSET 0.0081 -0.0158 0.008
                        }
                      }
                    }
                  }
                }
              }
            }
          }
        }
        JOINT rCollar
        {
          OFFSET -1.7069 20.075 5.0056
          CHANNELS 6 Xposition Yposition Zposition Zrotation Xrotation Yrotation
          JOINT rShldr
          {
            OFFSET -13.6458 -0.047 -4.849
            CHANNELS 6 Xposition Yposition Zposition Zrotation Xrotation Yrotation
            JOINT rForeArm
            {
              OFFSET -28.3255 -0.9759 2.2888
              CHANNELS 6 Xposition Yposition Zposition Zrotation Xrotation Yrotation
              JOINT rHand
              {
                OFFSET -22.1583 -0.53 10.8316
                CHANNELS 6 Xposition Yposition Zposition Zrotation Xrotation Yrotation
                JOINT rThumb1
                {
                  OFFSET -0.786 0.112 2.5817
                  CHANNELS 6 Xposition Yposition Zposition Zrotation Xrotation Yrotation
                  JOINT rThumb2
                  {
                    OFFSET -0.3601 -0.878 4.2331
                    CHANNELS 6 Xposition Yposition Zposition Zrotation Xrotation Yrotation
                    JOINT rThumb2_End
                    {
                      OFFSET -1.8127 -1.216 2.2227
                      CHANNELS 6 Xposition Yposition Zposition Zrotation Xrotation Yrotation
                      End Site
                      {
                        OFFSET -0.0181 -0.0122 0.0222
                      }
                    }
                  }
                }
                JOINT rCarpal1
                {
                  OFFSET -0.9571 1.114 1.7695
                  CHANNELS 6 Xposition Yposition Zposition Zrotation Xrotation Yrotation
                  JOINT rIndex1
                  {
                    OFFSET -4.1246 0.487 4.1451
                    CHANNELS 6 Xposition Yposition Zposition Zrotation Xrotation Yrotation
                    JOINT rIndex2
                    {
                      OFFSET -3.4052 -1.454 2.7682
                      CHANNELS 6 Xposition Yposition Zposition Zrotation Xrotation Yrotation
                      JOINT rIndex2_End
                      {
                        OFFSET -1.4531 -1.795 1.2713
                        CHANNELS 6 Xposition Yposition Zposition Zrotation Xrotation Yrotation
                        End Site
                        {
                          OFFSET -0.0145 -0.018 0.0127
                        }
                      }
                    }
                  }
                  JOINT rMid1
                  {
                    OFFSET -5.6954 0.21 2.1184
                    CHANNELS 6 Xposition Yposition Zposition Zrotation Xrotation Yrotation
                    JOINT rMid2
                    {
                      OFFSET -3.9766 -1.54 2.3863
                      CHANNELS 6 Xposition Yposition Zposition Zrotation Xrotation Yrotation
                      JOINT rMid2_End
                      {
                        OFFSET -1.4042 -1.926 1.125
                        CHANNELS 6 Xposition Yposition Zposition Zrotation Xrotation Yrotation
                        End Site
                        {
                          OFFSET -0.014 -0.0193 0.0113
                        }
                      }
                    }
                  }
                }
                JOINT rCarpal2
                {
                  OFFSET -2.0956 0.66 -0.3894
                  CHANNELS 6 Xposition Yposition Zposition Zrotation Xrotation Yrotation
                  JOINT rRing1
                  {
                    OFFSET -5.0395 -0.09 2.4971
                    CHANNELS 6 Xposition Yposition Zposition Zrotation Xrotation Yrotation
                    JOINT rRing2
                    {
                      OFFSET -3.7921 -1.552 1.4806
                      CHANNELS 6 Xposition Yposition Zposition Zrotation Xrotation Yrotation
                      JOINT rRing2_End
                      {
                        OFFSET -1.4655 -1.808 0.9609
                        CHANNELS 6 Xposition Yposition Zposition Zrotation Xrotation Yrotation
                        End Site
                        {
                          OFFSET -0.0147 -0.0181 0.0096
                        }
                      }
                    }
                  }
                  JOINT rPinky1
                  {
                    OFFSET -4.9141 -1.269 0.3592
                    CHANNELS 6 Xposition Yposition Zposition Zrotation Xrotation Yrotation
                    JOINT rPinky2
                    {
                      OFFSET -3.1477 -1.685 0.8462
                      CHANNELS 6 Xposition Yposition Zposition Zrotation Xrotation Yrotation
                      JOINT rPinky2_End
                      {
                        OFFSET -0.8055 -1.585 0.7955
                        CHANNELS 6 Xposition Yposition Zposition Zrotation Xrotation Yrotation
                        End Site
                        {
                          OFFSET -0.0081 -0.0158 0.008
                        }
                      }
                    }
                  }
                }
              }
            }
          }
        }
      }
    }
  }
  JOINT lThigh
  {
    OFFSET 8.367 -8.2066 0.5982
    CHANNELS 6 Xposition Yposition Zposition Zrotation Xrotation Yrotation
    JOINT lShin
    {
      OFFSET 2.1923 -43.463 -0.4932
      CHANNELS 6 Xposition Yposition Zposition Zrotation Xrotation Yrotation
      JOINT lFoot
      {
        OFFSET 0.7333 -45.8593 -2.6451
        CHANNELS 6 Xposition Yposition Zposition Zrotation Xrotation Yrotation
        End Site
        {
          OFFSET 2.6618 -4.2699 12.3931
        }
      }
    }
  }
  JOINT rThigh
  {
    OFFSET -8.367 -8.2066 0.5982
    CHANNELS 6 Xposition Yposition Zposition Zrotation Xrotation Yrotation
    JOINT rShin
    {
      OFFSET -2.1923 -43.463 -0.4931
      CHANNELS 6 Xposition Yposition Zposition Zrotation Xrotation Yrotation
      JOINT rFoot
      {
        OFFSET -0.7333 -45.8593 -2.6451
        CHANNELS 6 Xposition Yposition Zposition Zrotation Xrotation Yrotation
        End Site
        {
          OFFSET -2.6618 -4.2699 12.3931
        }
      }
    }
  }
}
MOTION
Frames:	4
Frame Time:	0.0333333
0 90.174 2.4664 0 0 -0 0 -1.186 -1.5018 0 0 -0 0 9.964 0.2134 0 0 -0 0 13.134 -3.2573 0 0 -0 0 20.686 -1.6905 0 0 -0 0 7.238 -0.1237 0 0 -0 1.7069 20.075 5.0056 0 0 -0 13.6458 -0.047 -4.849 1.66051 0.0835086 5.75766 28.3255 -0.9759 2.2888 -0.0175111 0.895433 15.7816 22.1583 -0.53 10.8316 7.95139e-016 -1.98785e-016 -0 0.786 0.112 2.5817 5.46658e-016 -3.97569e-016 -0 0.3601 -0.878 4.2331 5.96354e-016 0 -0 1.8127 -1.216 2.2227 3.97569e-016 1.98785e-016 9.54166e-015 0.9571 1.114 1.7695 1.49089e-016 -3.97569e-016 -0 4.1246 0.487 4.1451 6.4605e-016 0 3.18055e-015 3.4052 -1.454 2.7682 5.96354e-016 0 3.18055e-015 1.4531 -1.795 1.2713 8.94531e-016 -1.98785e-016 6.36111e-015 5.6954 0.21 2.1184 6.4605e-016 0 3.18055e-015 3.9766 -1.54 2.3863 5.96354e-016 0 3.18055e-015 1.4042 -1.926 1.125 8.94531e-016 -1.98785e-016 6.36111e-015 2.0956 0.66 -0.3894 1.49089e-016 -3.97569e-016 -0 5.0395 -0.09 2.4971 6.4605e-016 0 3.18055e-015 3.7921 -1.552 1.4806 5.96354e-016 0 3.18055e-015 1.4655 -1.808 0.9609 8.94531e-016 -1.98785e-016 6.36111e-015 4.9141 -1.269 0.3591 6.4605e-016 0 3.18055e-015 3.1477 -1.685 0.8462 5.96354e-016 0 3.18055e-015 0.8055 -1.585 0.7955 8.94531e-016 -1.98785e-016 6.36111e-015 -1.7069 20.075 5.0056 0 0 -0 -13.6458 -0.047 -4.849 -1.4496 0.0636048 -5.0245 -28.3255 -0.9759 2.2888 -1.74811 1.20616 -16.8394 -22.1583 -0.53 10.8316 -1.19271e-015 1.98785e-016 -3.18055e-015 -0.786 0.112 2.5817 -3.97569e-016 1.98785e-016 -3.18055e-015 -0.3601 -0.878 4.2331 -2.98177e-016 1.98785e-016 -3.18055e-015 -1.8127 -1.216 2.2227 -2.98177e-016 3.97569e-016 -0 -0.9571 1.114 1.7695 4.96962e-016 0 -6.36111e-015 -4.1246 0.487 4.1451 -9.93923e-017 3.97569e-016 -0 -3.4052 -1.454 2.7682 -8.94531e-016 5.96354e-016 -0 -1.4531 -1.795 1.2713 -3.97569e-016 3.97569e-016 -0 -5.6954 0.21 2.1184 -9.93923e-017 3.97569e-016 -0 -3.9766 -1.54 2.3863 -8.94531e-016 5.96354e-016 -0 -1.4042 -1.926 1.125 -3.97569e-016 3.97569e-016 -0 -2.0956 0.66 -0.3894 4.96962e-016 0 -6.36111e-015 -5.0395 -0.09 2.4971 -9.93923e-017 3.97569e-016 -0 -3.7921 -1.552 1.4806 -8.94531e-016 5.96354e-016 -0 -1.4655 -1.808 0.9609 -3.97569e-016 3.97569e-016 -0 -4.9141 -1.269 0.3592 -9.93923e-017 3.97569e-016 -0 -3.1477 -1.685 0.8462 -8.94531e-016 5.96354e-016 -0 -0.8055 -1.585 0.7955 -3.97569e-016 3.97569e-016 -0 8.367 -8.2066 0.5982 -4.66115 -1.03232 0.120763 2.1923 -43.463 -0.4932 0.00990601 1.55097 0.177175 0.7333 -45.8593 -2.6451 4.65196 -0.54114 -0.255042 -8.367 -8.2066 0.5982 4.66115 -1.03222 -0.120763 -2.1923 -43.463 -0.4931 -0.00990459 1.5509 -0.177176 -0.7333 -45.8593 -2.6451 -4.65196 -0.541171 0.255041 
0.778646 33.4287 -4.35306 -0 -50.3428 -0 0 -1.186 -1.5018 -0.00732746 0.0737504 -0.0867734 1.11022e-016 9.964 0.2134 -0.0145432 0.147517 -0.173538 -1.11022e-016 13.134 -3.2573 -0.0145432 0.147523 -0.173538 0 20.686 -1.6905 -0.00733862 5.95982 -0.00143017 0 7.238 -0.1237 -4.29051e-008 -6.92266 -5.06117e-008 1.7069 20.075 5.0056 10.3572 16.0875 8.44835 13.6458 -0.047 -4.849 -55.9907 -1.59307 29.0762 28.3255 -0.9759 2.2888 18.4344 19.0054 -43.5783 22.1583 -0.53 10.8316 -1.99255 23.9981 -1.78854 0.786 0.112 2.5817 3.87164e-007 7.13909e-010 -3.43954e-006 0.3601 -0.878 4.2331 -4.45661e-007 1.95119e-007 3.50078e-006 1.8127 -1.216 2.2227 -1.03368e-014 -4.77083e-015 1.59028e-014 0.9571 1.114 1.7695 -2.38542e-015 0 3.18055e-015 4.1246 0.487 4.1451 3.87164e-007 7.13912e-010 -3.43954e-006 3.4052 -1.454 2.7682 -4.45661e-007 1.95119e-007 3.50078e-006 1.4531 -1.795 1.2713 -3.97569e-015 -3.18055e-015 1.59028e-014 5.6954 0.21 2.1184 3.87164e-007 7.13912e-010 -3.43954e-006 3.9766 -1.54 2.3863 -4.45661e-007 1.95119e-007 3.50078e-006 1.4042 -1.926 1.125 -3.97569e-015 -3.18055e-015 1.59028e-014 2.0956 0.66 -0.3894 -2.38542e-015 0 3.18055e-015 5.0395 -0.09 2.4971 3.87164e-007 7.13912e-010 -3.43954e-006 3.7921 -1.552 1.4806 -4.45661e-007 1.95119e-007 3.50078e-006 1.4655 -1.808 0.9609 -3.97569e-015 -3.18055e-015 1.59028e-014 4.9141 -1.269 0.3591 3.87164e-007 7.13912e-010 -3.43954e-006 3.1477 -1.685 0.8462 -4.45661e-007 1.95119e-007 3.50078e-006 0.8055 -1.585 0.7955 -3.97569e-015 -3.18055e-015 1.59028e-014 -1.7069 20.075 5.0056 -10.8483 15.9844 -8.32787 -13.6458 -0.047 -4.849 56.1447 -1.68063 -28.4554 -28.3255 -0.9759 2.2888 -19.5653 18.118 43.1214 -22.1583 -0.53 10.8316 1.85749 24.0102 2.46397 -0.786 0.112 2.5817 1.13565e-007 3.94038e-007 -1.18255e-007 -0.3601 -0.878 4.2331 5.67824e-008 1.97019e-007 -5.91277e-008 -1.8127 -1.216 2.2227 1.13565e-007 3.94038e-007 -1.18255e-007 -0.9571 1.114 1.7695 5.56597e-015 4.77083e-015 -3.18055e-015 -4.1246 0.487 4.1451 1.13565e-007 3.94038e-007 -1.18255e-007 -3.4052 -1.454 2.7682 5.67824e-008 1.97019e-007 -5.91277e-008 -1.4531 -1.795 1.2713 1.13565e-007 3.94038e-007 -1.18255e-007 -5.6954 0.21 2.1184 1.13565e-007 3.94038e-007 -1.18255e-007 -3.9766 -1.54 2.3863 5.67824e-008 1.97019e-007 -5.91277e-008 -1.4042 -1.926 1.125 1.13565e-007 3.94038e-007 -1.18255e-007 -2.0956 0.66 -0.3894 5.56597e-015 4.77083e-015 -3.18055e-015 -5.0395 -0.09 2.4971 1.13565e-007 3.94038e-007 -1.18255e-007 -3.7921 -1.552 1.4806 5.67824e-008 1.97019e-007 -5.91277e-008 -1.4655 -1.808 0.9609 1.13565e-007 3.94038e-007 -1.18255e-007 -4.9141 -1.269 0.3592 1.13565e-007 3.94038e-007 -1.18255e-007 -3.1477 -1.685 0.8462 5.67824e-008 1.97019e-007 -5.91277e-008 -0.8055 -1.585 0.7955 1.13565e-007 3.94038e-007 -1.18255e-007 8.367 -8.2066 0.5982 32.1745 -39.0914 12.6347 2.1923 -43.463 -0.4932 -2.29766 68.0525 6.19466 0.7333 -45.8593 -2.6451 3.53223 15.6955 4.12825 -8.367 -8.2066 0.5982 -37.6312 -15.2686 -8.41376 -2.1923 -43.463 -0.4931 0.395697 31.5887 -2.27889 -0.7333 -45.8593 -2.6451 -2.56803 16.4112 -3.51443 
2.47006 -2.91606 -6.05061 -0 -79.9173 -0 0 -1.186 -1.5018 -0.029077 0.232152 -0.134885 0 9.964 0.2134 -0.0576082 0.464361 -0.269656 -4.44089e-016 13.134 -3.2573 -0.057608 0.464359 -0.269656 -4.44089e-016 20.686 -1.6905 0.0137937 9.46272 0.00136174 -4.44089e-016 7.238 -0.1237 2.91041e-008 -10.8521 -1.94027e-007 1.7069 20.075 5.0056 13.843 24.7247 14.1746 13.6458 -0.047 -4.849 -88.8119 -2.09314 42.6339 28.3255 -0.9759 2.2888 35.0706 0.950816 -69.6795 22.1583 -0.53 10.8316 -1.93715 37.6656 -4.87242 0.786 0.112 2.5817 2.38542e-015 -9.93923e-015 3.18055e-015 0.3601 -0.878 4.2331 3.18055e-015 -5.1684e-015 3.18055e-015 1.8127 -1.216 2.2227 3.18055e-015 1.59028e-015 -0 0.9571 1.114 1.7695 4.41391e-031 -7.95139e-015 3.18055e-015 4.1246 0.487 4.1451 -1.59028e-015 -4.37326e-015 6.36111e-015 3.4052 -1.454 2.7682 5.56597e-015 -3.97569e-015 -3.18055e-015 1.4531 -1.795 1.2713 2.38542e-015 -8.34896e-015 3.18055e-015 5.6954 0.21 2.1184 -1.59028e-015 -4.37326e-015 6.36111e-015 3.9766 -1.54 2.3863 5.56597e-015 -3.97569e-015 -3.18055e-015 1.4042 -1.926 1.125 2.38542e-015 -8.34896e-015 3.18055e-015 2.0956 0.66 -0.3894 4.41391e-031 -7.95139e-015 3.18055e-015 5.0395 -0.09 2.4971 -1.59028e-015 -4.37326e-015 6.36111e-015 3.7921 -1.552 1.4806 5.56597e-015 -3.97569e-015 -3.18055e-015 1.4655 -1.808 0.9609 2.38542e-015 -8.34896e-015 3.18055e-015 4.9141 -1.269 0.3591 -1.59028e-015 -4.37326e-015 6.36111e-015 3.1477 -1.685 0.8462 5.56597e-015 -3.97569e-015 -3.18055e-015 0.8055 -1.585 0.7955 2.38542e-015 -8.34896e-015 3.18055e-015 -1.7069 20.075 5.0056 -14.6605 24.5779 -13.9642 -13.6458 -0.047 -4.849 88.9201 -2.21129 -42.0785 -28.3255 -0.9759 2.2888 -35.7097 -0.365744 68.9146 -22.1583 -0.53 10.8316 1.55434 37.6267 6.06774 -0.786 0.112 2.5817 -2.64834e-031 -1.59028e-015 -9.54166e-015 -0.3601 -0.878 4.2331 1.59028e-015 -7.95139e-016 -3.18055e-015 -1.8127 -1.216 2.2227 -3.18055e-015 0 -6.36111e-015 -0.9571 1.114 1.7695 -1.59028e-015 -1.59028e-015 -3.18055e-015 -4.1246 0.487 4.1451 -1.59028e-015 3.97569e-015 -6.36111e-015 -3.4052 -1.454 2.7682 4.77083e-015 3.97569e-015 -3.18055e-015 -1.4531 -1.795 1.2713 0 5.56597e-015 -0 -5.6954 0.21 2.1184 -1.59028e-015 3.97569e-015 -6.36111e-015 -3.9766 -1.54 2.3863 4.77083e-015 3.97569e-015 -3.18055e-015 -1.4042 -1.926 1.125 0 5.56597e-015 -0 -2.0956 0.66 -0.3894 -1.59028e-015 -1.59028e-015 -3.18055e-015 -5.0395 -0.09 2.4971 -1.59028e-015 3.97569e-015 -6.36111e-015 -3.7921 -1.552 1.4806 4.77083e-015 3.97569e-015 -3.18055e-015 -1.4655 -1.808 0.9609 0 5.56597e-015 -0 -4.9141 -1.269 0.3592 -1.59028e-015 3.97569e-015 -6.36111e-015 -3.1477 -1.685 0.8462 4.77083e-015 3.97569e-015 -3.18055e-015 -0.8055 -1.585 0.7955 0 5.56597e-015 -0 8.367 -8.2066 0.5982 64.7983 -60.5502 32.0469 2.1923 -43.463 -0.4932 -176.23 70.0735 -175.445 0.7333 -45.8593 -2.6451 1.86136 21.955 8.72882 -8.367 -8.2066 0.5982 -63.9738 -22.4535 -13.6091 -2.1923 -43.463 -0.4931 1.02516 49.1588 -4.18042 -0.7333 -45.8593 -2.6451 -0.342698 24.8816 -6.12652 
2.17142 1.56631 -6.18118 -0 -76.8557 -0 0 -1.186 -1.5018 -0.0271552 0.522906 -0.128824 0 9.964 0.2134 -0.0531379 1.04587 -0.257417 0 13.134 -3.2573 -0.0531381 1.04588 -0.257417 0 20.686 -1.6905 0.0795946 9.10711 0.00802104 -4.44089e-016 7.238 -0.1237 1.06383e-007 -10.0781 -3.69291e-008 1.7069 20.075 5.0056 13.0486 22.8255 13.3372 13.6458 -0.047 -4.849 -84.5291 -1.9124 40.8172 28.3255 -0.9759 2.2888 33.5242 4.03841 -67.2744 22.1583 -0.53 10.8316 -1.84658 35.5887 -4.33403 0.786 0.112 2.5817 2.2587e-006 -6.30864e-007 -5.7135e-007 0.3601 -0.878 4.2331 3.70349e-006 1.83055e-007 -8.20735e-007 1.8127 -1.216 2.2227 3.07262e-006 -2.07565e-006 -8.93315e-007 0.9571 1.114 1.7695 3.57812e-015 3.57812e-015 -6.36111e-015 4.1246 0.487 4.1451 2.2587e-006 -6.30864e-007 -5.7135e-007 3.4052 -1.454 2.7682 3.70349e-006 1.83055e-007 -8.20735e-007 1.4531 -1.795 1.2713 3.07262e-006 -2.07565e-006 -8.93315e-007 5.6954 0.21 2.1184 2.2587e-006 -6.30864e-007 -5.7135e-007 3.9766 -1.54 2.3863 3.70349e-006 1.83055e-007 -8.20735e-007 1.4042 -1.926 1.125 3.07262e-006 -2.07565e-006 -8.93315e-007 2.0956 0.66 -0.3894 3.57812e-015 3.57812e-015 -6.36111e-015 5.0395 -0.09 2.4971 2.2587e-006 -6.30864e-007 -5.7135e-007 3.7921 -1.552 1.4806 3.70349e-006 1.83055e-007 -8.20735e-007 1.4655 -1.808 0.9609 3.07262e-006 -2.07565e-006 -8.93315e-007 4.9141 -1.269 0.3591 2.2587e-006 -6.30864e-007 -5.7135e-007 3.1477 -1.685 0.8462 3.70349e-006 1.83055e-007 -8.20735e-007 0.8055 -1.585 0.7955 3.07262e-006 -2.07565e-006 -8.93315e-007 -1.7069 20.075 5.0056 -13.7923 22.6884 -13.1522 -13.6458 -0.047 -4.849 84.645 -2.02726 -40.2476 -28.3255 -0.9759 2.2888 -34.204 2.76566 66.5451 -22.1583 -0.53 10.8316 1.50629 35.5562 5.44288 -0.786 0.112 2.5817 -5.00809e-007 -7.55583e-008 -2.70862e-006 -0.3601 -0.878 4.2331 7.95139e-016 1.19271e-015 -3.18055e-015 -1.8127 -1.216 2.2227 2.38542e-015 2.38542e-015 -0 -0.9571 1.114 1.7695 2.38542e-015 1.98785e-015 -9.54166e-015 -4.1246 0.487 4.1451 -5.00809e-007 -7.55583e-008 -2.70862e-006 -3.4052 -1.454 2.7682 7.95139e-016 -3.57812e-015 -3.18055e-015 -1.4531 -1.795 1.2713 2.38542e-015 -5.1684e-015 -0 -5.6954 0.21 2.1184 -5.00809e-007 -7.55583e-008 -2.70862e-006 -3.9766 -1.54 2.3863 7.95139e-016 -3.57812e-015 -3.18055e-015 -1.4042 -1.926 1.125 2.38542e-015 -5.1684e-015 -0 -2.0956 0.66 -0.3894 2.38542e-015 1.98785e-015 -9.54166e-015 -5.0395 -0.09 2.4971 -5.00809e-007 -7.55583e-008 -2.70862e-006 -3.7921 -1.552 1.4806 7.95139e-016 -3.57812e-015 -3.18055e-015 -1.4655 -1.808 0.9609 2.38542e-015 -5.1684e-015 -0 -4.9141 -1.269 0.3592 -5.00809e-007 -7.55583e-008 -2.70862e-006 -3.1477 -1.685 0.8462 7.95139e-016 -3.57812e-015 -3.18055e-015 -0.8055 -1.585 0.7955 2.38542e-015 -5.1684e-015 -0 8.367 -8.2066 0.5982 59.2168 -57.49 27.9138 2.1923 -43.463 -0.4932 -174.857 75.4148 -177.561 0.7333 -45.8593 -2.6451 2.61054 21.4063 7.80047 -8.367 -8.2066 0.5982 -60.1655 -20.9528 -11.6957 -2.1923 -43.463 -0.4931 0.94987 46.0235 -3.88932 -0.7333 -45.8593 -2.6451 -1.22537 23.9332 -5.52237 
